<svg width="500" height="500" viewBox="0 0 500 500" fill="none" xmlns="http://www.w3.org/2000/svg">
<path d="M373.147 242.009C373.147 309.69 318.025 364.58 250 364.58C181.975 364.58 126.853 309.69 126.853 242.009C126.853 174.328 181.975 119.438 250 119.438C318.025 119.438 373.147 174.328 373.147 242.009Z" stroke="black" stroke-opacity="0.8" stroke-width="6"/>
<path d="M421.312 242.009C421.312 336.17 344.626 412.525 250 412.525C155.374 412.525 78.688 336.17 78.688 242.009C78.688 147.849 155.374 71.4932 250 71.4932C344.626 71.4932 421.312 147.849 421.312 242.009Z" stroke="black" stroke-opacity="0.8" stroke-width="6"/>
<rect x="240.826" y="319.635" width="16.055" height="180.365" fill="black" fill-opacity="0.8"/>
<rect x="240.826" y="319.635" width="16.055" height="180.365" fill="black" fill-opacity="0.8"/>
<rect x="240.826" y="319.635" width="16.055" height="180.365" fill="black" fill-opacity="0.8"/>
<rect x="500" y="242.009" width="13.6986" height="172.018" transform="rotate(90 500 242.009)" fill="black" fill-opacity="0.8"/>
<rect x="500" y="242.009" width="13.6986" height="172.018" transform="rotate(90 500 242.009)" fill="black" fill-opacity="0.8"/>
<rect x="500" y="242.009" width="13.6986" height="172.018" transform="rotate(90 500 242.009)" fill="black" fill-opacity="0.8"/>
<rect x="172.019" y="242.009" width="13.6986" height="172.018" transform="rotate(90 172.019 242.009)" fill="black" fill-opacity="0.8"/>
<rect x="172.019" y="242.009" width="13.6986" height="172.018" transform="rotate(90 172.019 242.009)" fill="black" fill-opacity="0.8"/>
<rect x="172.019" y="242.009" width="13.6986" height="172.018" transform="rotate(90 172.019 242.009)" fill="black" fill-opacity="0.8"/>
<rect x="240.826" width="16.055" height="164.384" fill="black" fill-opacity="0.8"/>
<rect x="240.826" width="16.055" height="164.384" fill="black" fill-opacity="0.8"/>
<rect x="240.826" width="16.055" height="164.384" fill="black" fill-opacity="0.8"/>
</svg>
