<svg width="90" height="90" viewBox="0 0 90 90" fill="none" xmlns="http://www.w3.org/2000/svg">
<path d="M45.9141 0.525391C44.9961 8.05664 44.9961 8.05664 38.4141 11.8379C45.9531 12.7617 45.9531 12.7617 49.7422 19.3438C50.6602 11.8086 50.6602 11.8086 57.2422 8.02539C49.7031 7.10156 49.7031 7.10156 45.9141 0.525391ZM86.207 4.54688C85.4648 4.76953 84.4492 5.15625 83.2383 5.72656C80.4844 7.00977 76.8711 9.05664 73.1016 11.3906C65.582 16.0508 57.3789 22 54.332 25.1445L54.1758 25.3008L45.9727 30.0664C46.6758 30.4961 47.3398 30.9648 48.0234 31.4922C50.5234 33.4258 52.9648 35.9062 54.2734 37.1367L51.8906 39.7148C50.4258 38.3477 48.1016 35.9844 45.875 34.2656C44.7813 33.4258 43.6875 32.7422 42.9453 32.4492C42.5156 32.293 42.3008 32.2539 42.2031 32.2539L42.0469 32.3516L5.83008 68.5234C6.48437 68.6211 7.14453 68.7969 7.80078 69.0117C10.7012 69.9688 13.7656 71.9219 16.5586 74.7148C19.332 77.4883 21.2852 80.5547 22.2617 83.4453C22.3789 83.8164 22.4961 84.1875 22.5742 84.5781L58.375 48.7773L65.4063 37.332L65.543 37.1758C69.0195 33.7187 74.9375 25.3789 79.5273 17.7813C81.832 13.9902 83.8242 10.3477 85.0547 7.58984C85.6211 6.33984 85.9922 5.30273 86.207 4.54688ZM79.5469 26.9219C80.3477 33.0352 80.3477 33.0352 75.9531 37.3711C82.0859 36.5508 82.0859 36.5508 86.4023 40.9258C85.582 34.832 85.582 34.832 89.9375 30.4961C83.8633 31.2969 83.8633 31.2969 79.5469 26.9219ZM10.6934 33.2109C7.48437 39.1094 7.48437 39.1094 0.847656 40.1055C6.74219 43.3281 6.74219 43.3281 7.74219 49.9492C10.9512 44.0703 10.9512 44.0703 17.5742 43.0547C11.6875 39.832 11.6875 39.832 10.6934 33.2109ZM75.7383 43.9922C70.8359 54.1484 70.8359 54.1484 59.7422 56.3164C69.918 61.2188 69.918 61.2188 72.0859 72.3125C76.9883 62.1367 76.9883 62.1367 88.0625 59.9883C77.9063 55.0664 77.9063 55.0664 75.7383 43.9922ZM4.23047 71.9023C3.36914 71.9023 2.75781 72.1367 2.40039 72.4883C1.76562 73.1328 1.51758 74.5586 2.24805 76.7852C2.99414 78.9922 4.67969 81.707 7.10938 84.1484C9.54102 86.5703 12.248 88.25 14.4688 88.9922C16.6953 89.7344 18.1211 89.4805 18.7656 88.8555C19.3906 88.2109 19.6445 86.7852 18.9219 84.5586C18.1602 82.3516 16.4805 79.6367 14.0391 77.2148C11.6133 74.7734 8.90625 73.0937 6.69531 72.3516C5.72266 72.0195 4.90039 71.9023 4.23047 71.9023ZM36.6758 77.4492C37.2617 82.3711 37.2617 82.3711 33.668 85.8281C38.6094 85.2227 38.6094 85.2227 42.0664 88.8164C41.4805 83.875 41.4805 83.875 45.0352 80.4375C40.1133 81.0234 40.1133 81.0234 36.6758 77.4492ZM7.53906 79.2266C7.95296 79.2504 8.48549 79.4502 9.07012 79.801C9.65475 80.1518 10.2655 80.6382 10.8262 81.1992C11.581 81.9546 12.1917 82.7919 12.5245 83.5278C12.8572 84.2636 12.885 84.838 12.6016 85.125C12.3153 85.4104 11.7403 85.3834 11.003 85.0501C10.2657 84.7168 9.42646 84.1044 8.66992 83.3477C7.91511 82.5923 7.30441 81.755 6.97163 81.0191C6.63885 80.2833 6.61112 79.7089 6.89453 79.4219C7.0385 79.2774 7.25767 79.2109 7.53906 79.2266Z" fill="white"/>
</svg>
