<svg width="100" height="100" viewBox="0 0 100 100" fill="none" xmlns="http://www.w3.org/2000/svg">
<path d="M0 21.9C0 25.7667 1.03333 29.4333 3.1 32.9C5.56667 25.9667 9.43333 19.9 14.7 14.7C19.9667 9.5 26.0333 5.63333 32.9 3.1C29.3667 1.03333 25.7 0 21.9 0C15.8333 0 10.6667 2.16667 6.4 6.5C2.13333 10.8333 0 15.9667 0 21.9ZM6.3 50C6.3 55.8 7.4 61.3333 9.6 66.6C11.8 71.8667 14.8667 76.5333 18.8 80.6V93.8C18.8 95.5333 19.4 97 20.6 98.2C21.8 99.4 23.2667 100 25 100C26.7333 100 28.2 99.4 29.4 98.2C30.6 97 31.2333 95.5333 31.3 93.8V89.4C37.3667 92.3333 43.6 93.8 50 93.8C56.4 93.8 62.6667 92.3333 68.8 89.4V93.8C68.8 95.5333 69.4 97 70.6 98.2C71.8 99.4 73.2667 100 75 100C76.7333 100 78.2 99.4 79.4 98.2C80.6 97 81.2333 95.5333 81.3 93.8V80.6C85.2333 76.5333 88.3 71.9 90.5 66.7C92.7 61.5 93.8 55.9333 93.8 50C93.8 44.0667 92.6333 38.4 90.3 33C87.9667 27.6 84.8667 22.9333 81 19C77.1333 15.0667 72.4667 11.9667 67 9.7C61.5333 7.43333 55.8667 6.26667 50 6.2C44.1333 6.13333 38.4667 7.3 33 9.7C27.5333 12.1 22.8667 15.2 19 19C15.1333 22.8 12.0333 27.4667 9.7 33C7.36667 38.5333 6.23333 44.2 6.3 50ZM18.8 50C18.8 45.7333 19.6 41.7 21.2 37.9C22.8 34.1 25.0333 30.7667 27.9 27.9C30.7667 25.0333 34.1 22.8 37.9 21.2C41.7 19.6 45.7333 18.7667 50 18.7C55.6667 18.7 60.9 20.1 65.7 22.9C70.5 25.7 74.3 29.5 77.1 34.3C79.9 39.1 81.3 44.3333 81.3 50C81.3 54.2 80.4667 58.2333 78.8 62.1C77.1333 65.9667 74.9 69.3 72.1 72.1C69.3 74.9 65.9667 77.1333 62.1 78.8C58.2333 80.4667 54.2 81.2667 50 81.2C44.3333 81.2 39.1 79.8333 34.3 77.1C29.5 74.3667 25.7333 70.5667 23 65.7C20.2667 60.8333 18.8667 55.6 18.8 50ZM43.8 50C43.8 51.7333 44.4 53.2 45.6 54.4C46.8 55.6 48.2667 56.2 50 56.2H62.5C64.2333 56.2 65.7 55.6 66.9 54.4C68.1 53.2 68.7333 51.7333 68.8 50C68.8667 48.2667 68.2333 46.8 66.9 45.6C65.5667 44.4 64.1 43.7667 62.5 43.7H56.3V37.5C56.3 35.7667 55.6667 34.3 54.4 33.1C53.1333 31.9 51.6667 31.2667 50 31.2C48.3333 31.1333 46.8667 31.7667 45.6 33.1C44.3333 34.4333 43.7333 35.9 43.8 37.5V50ZM67.1 3.1C74.0333 5.63333 80.1 9.5 85.3 14.7C90.5 19.9 94.3667 25.9667 96.9 32.9C98.9667 29.4333 100 25.7667 100 21.9C100 15.9 97.8667 10.7667 93.6 6.5C89.3333 2.23333 84.1667 0.0666667 78.1 0C74.3 0 70.6333 1.03333 67.1 3.1Z" fill="white"/>
</svg>
