<?xml version="1.0" encoding="UTF-8"?>
<svg xmlns="http://www.w3.org/2000/svg" xmlns:xlink="http://www.w3.org/1999/xlink" viewBox="0 0 50 50" width="50px" height="50px">
<g id="surface121196282">
<rect x="0" y="0" width="50" height="50" style="fill:rgb(86.666667%,86.666667%,86.666667%);fill-opacity:1;stroke:none;"/>
<path style=" stroke:none;fill-rule:nonzero;fill:rgb(0%,0%,0%);fill-opacity:1;" d="M 25 4.761719 C 13.832031 4.761719 4.761719 13.832031 4.761719 25 C 4.761719 36.167969 13.832031 45.238281 25 45.238281 C 36.167969 45.238281 45.238281 36.167969 45.238281 25 C 45.238281 13.832031 36.167969 4.761719 25 4.761719 Z M 25 6.519531 C 35.214844 6.519531 43.480469 14.785156 43.480469 25 C 43.480469 35.214844 35.214844 43.480469 25 43.480469 C 14.785156 43.480469 6.519531 35.214844 6.519531 25 C 6.519531 14.785156 14.785156 6.519531 25 6.519531 Z M 16.203125 18.839844 L 12.652344 18.839844 C 12.652344 18.839844 12.449219 18.832031 12.203125 18.863281 C 11.957031 18.894531 11.59375 18.910156 11.222656 19.328125 L 11.222656 19.332031 L 11.21875 19.332031 C 10.886719 19.710938 10.902344 20.152344 10.941406 20.394531 C 10.984375 20.636719 11.074219 20.816406 11.078125 20.816406 C 11.109375 20.902344 13.6875 27.21875 16.9375 30.613281 C 19.230469 33.007812 21.683594 33.800781 23.867188 33.800781 L 25 33.800781 C 25.371094 33.800781 25.707031 33.78125 26.074219 33.59375 C 26.441406 33.402344 26.761719 32.875 26.761719 32.464844 C 26.761719 32.023438 26.769531 31.597656 26.828125 31.359375 C 26.878906 31.136719 26.859375 31.191406 26.878906 31.1875 C 26.902344 31.195312 26.941406 31.203125 27.011719 31.234375 C 27.167969 31.304688 27.414062 31.464844 27.679688 31.675781 C 28.21875 32.089844 28.855469 32.695312 29.570312 33.164062 C 30.589844 33.839844 31.699219 33.800781 31.699219 33.800781 L 35.355469 33.800781 L 35.398438 33.796875 C 35.398438 33.796875 35.957031 33.785156 36.535156 33.429688 C 36.824219 33.253906 37.164062 32.929688 37.28125 32.445312 C 37.394531 31.957031 37.25 31.449219 36.964844 31 C 36.863281 30.835938 36.363281 30.109375 34.359375 28.332031 C 33.84375 27.875 33.492188 27.550781 33.351562 27.378906 C 33.300781 27.316406 33.296875 27.320312 33.289062 27.320312 C 33.300781 27.289062 33.414062 27.046875 33.722656 26.644531 C 34.046875 26.222656 34.535156 25.640625 35.167969 24.839844 C 35.96875 23.816406 36.53125 22.832031 36.886719 22.003906 C 37.0625 21.585938 37.191406 21.210938 37.265625 20.871094 C 37.339844 20.527344 37.398438 20.246094 37.289062 19.839844 C 37.207031 19.539062 36.980469 19.269531 36.757812 19.128906 C 36.539062 18.984375 36.332031 18.929688 36.148438 18.898438 C 35.777344 18.828125 35.453125 18.839844 35.148438 18.839844 C 34.511719 18.839844 31.679688 18.863281 31.445312 18.863281 C 31.171875 18.863281 30.734375 18.976562 30.53125 19.09375 C 30.027344 19.378906 29.871094 19.773438 29.871094 19.773438 L 29.824219 19.859375 L 29.796875 19.953125 C 29.796875 19.953125 29.152344 22.039062 28.488281 23.113281 L 28.484375 23.113281 C 27.707031 24.382812 27.125 24.882812 26.867188 25.027344 C 26.839844 25.039062 26.855469 25.03125 26.835938 25.042969 C 26.816406 24.984375 26.792969 24.90625 26.777344 24.757812 C 26.738281 24.421875 26.761719 23.949219 26.761719 23.496094 C 26.761719 22.230469 26.855469 21.445312 26.75 20.699219 C 26.695312 20.328125 26.5625 19.910156 26.257812 19.59375 C 25.953125 19.273438 25.558594 19.117188 25.164062 19.027344 C 24.753906 18.929688 24.3125 18.851562 23.25 18.839844 C 21.894531 18.828125 21.015625 18.871094 20.230469 19.21875 L 20.214844 19.226562 C 19.90625 19.371094 19.660156 19.539062 19.445312 19.761719 C 19.339844 19.871094 19.210938 19.953125 19.125 20.308594 C 19.078125 20.484375 19.074219 20.820312 19.273438 21.089844 C 19.476562 21.363281 19.753906 21.445312 19.921875 21.464844 C 19.890625 21.460938 20.050781 21.496094 20.175781 21.558594 C 20.300781 21.621094 20.40625 21.707031 20.433594 21.746094 C 20.421875 21.730469 20.542969 22.027344 20.574219 22.296875 C 20.605469 22.566406 20.601562 22.785156 20.601562 22.785156 L 20.597656 22.839844 L 20.601562 22.894531 C 20.601562 22.894531 20.65625 23.492188 20.628906 24.109375 C 20.613281 24.417969 20.574219 24.726562 20.523438 24.917969 C 20.523438 24.925781 20.519531 24.925781 20.515625 24.933594 C 20.296875 24.777344 19.789062 24.242188 19.089844 23.085938 C 18.441406 22.019531 17.835938 20.09375 17.835938 20.09375 L 17.824219 20.050781 L 17.808594 20.011719 C 17.808594 20.011719 17.695312 19.582031 17.195312 19.230469 C 16.726562 18.902344 16.28125 18.855469 16.28125 18.855469 Z M 15.996094 20.601562 C 16.046875 20.617188 16.152344 20.65625 16.171875 20.664062 L 16.152344 20.601562 C 16.152344 20.601562 16.179688 20.664062 16.179688 20.667969 C 16.179688 20.667969 16.183594 20.667969 16.183594 20.667969 L 16.183594 20.671875 C 16.140625 20.640625 16.179688 20.671875 16.183594 20.675781 C 16.207031 20.761719 16.746094 22.609375 17.582031 23.996094 C 18.347656 25.261719 18.914062 25.96875 19.527344 26.390625 C 20.144531 26.8125 20.972656 26.769531 21.394531 26.550781 C 21.957031 26.257812 22.113281 25.777344 22.222656 25.378906 C 22.332031 24.976562 22.371094 24.574219 22.386719 24.1875 C 22.421875 23.457031 22.363281 22.859375 22.359375 22.796875 C 22.359375 22.765625 22.367188 22.480469 22.320312 22.09375 C 22.277344 21.707031 22.195312 21.222656 21.851562 20.738281 C 22.238281 20.679688 22.453125 20.59375 23.230469 20.601562 C 24.226562 20.609375 24.375 20.652344 24.769531 20.742188 C 24.980469 20.789062 25.003906 20.832031 24.984375 20.808594 C 24.964844 20.789062 24.984375 20.773438 25.007812 20.945312 C 25.054688 21.289062 25 22.164062 25 23.496094 C 25 23.871094 24.964844 24.398438 25.027344 24.953125 C 25.085938 25.503906 25.261719 26.214844 25.929688 26.628906 C 26.3125 26.863281 27.039062 26.945312 27.726562 26.5625 C 28.414062 26.179688 29.117188 25.445312 29.984375 24.039062 C 30.839844 22.648438 31.355469 20.820312 31.410156 20.628906 C 31.410156 20.628906 31.417969 20.621094 31.425781 20.617188 C 31.441406 20.621094 31.421875 20.621094 31.445312 20.621094 C 31.769531 20.621094 34.550781 20.601562 35.148438 20.601562 C 35.3125 20.601562 35.382812 20.609375 35.503906 20.613281 C 35.457031 20.804688 35.390625 21.023438 35.269531 21.308594 C 34.980469 21.980469 34.492188 22.847656 33.78125 23.753906 C 33.167969 24.53125 32.695312 25.097656 32.332031 25.570312 C 31.96875 26.042969 31.679688 26.414062 31.5625 26.953125 C 31.441406 27.492188 31.671875 28.097656 31.980469 28.484375 C 32.292969 28.867188 32.675781 29.195312 33.191406 29.648438 C 35.128906 31.367188 35.445312 31.886719 35.476562 31.9375 C 35.507812 31.992188 35.488281 31.9375 35.5 31.964844 C 35.390625 32 35.257812 32.039062 35.246094 32.039062 L 31.679688 32.039062 C 31.679688 32.039062 31.027344 32.019531 30.539062 31.695312 L 30.535156 31.695312 C 30.023438 31.359375 29.398438 30.78125 28.761719 30.285156 C 28.441406 30.035156 28.117188 29.800781 27.738281 29.632812 C 27.359375 29.460938 26.882812 29.339844 26.378906 29.492188 C 25.648438 29.710938 25.246094 30.402344 25.113281 30.953125 C 25.023438 31.347656 25.035156 31.691406 25.03125 32.039062 C 25.007812 32.039062 25.027344 32.039062 25 32.039062 L 23.867188 32.039062 C 22.078125 32.039062 20.21875 31.492188 18.210938 29.398438 C 15.601562 26.671875 13.273438 21.402344 12.925781 20.601562 Z M 31.347656 20.605469 C 31.332031 20.609375 31.378906 20.613281 31.414062 20.617188 C 31.410156 20.621094 31.414062 20.613281 31.40625 20.617188 C 31.40625 20.605469 31.367188 20.601562 31.347656 20.605469 Z M 31.347656 20.605469 "/>
</g>
</svg>
