<svg width="auto" height="auto" viewBox="0 0 420 413" fill="none" xmlns="http://www.w3.org/2000/svg"><g filter="url(#a)"><ellipse cx="210" cy="206.066" rx="175" ry="171.066" fill="#000"/></g><path d="M197.108 71.145c-14.291.933-23.628 2.427-28.105 4.481-13.529 6.069-19.531 17.272-19.531 36.786 0 19.419 7.908 43.414 20.293 61.247 10.575 15.311 10.766 30.436.667 51.91-5.431 11.484-6.669 16.059-7.336 26.236-.572 10.083.476 16.338 4.287 23.714 2.287 4.575 7.717 12.044 8.289 11.484.19-.187-.477-2.614-1.429-5.415-2.477-6.909-2.477-18.113 0-27.543 2.286-8.683 6.573-17.646 13.909-28.943 6.764-10.363 10.956-19.793 13.719-31.277 3.716-15.218 4.097-16.152 6.955-17.739 2.287-1.214 2.858-1.214 5.24 0 2.763 1.587 3.43 3.081 6.86 17.553 2.667 11.577 6.859 21.007 14.29 32.397 3.335 5.135 7.241 11.951 8.765 15.312 6.383 13.724 8.289 29.876 4.573 40.24-.952 2.801-1.619 5.228-1.429 5.415.572.56 6.002-6.909 8.289-11.484 3.811-7.376 4.859-13.631 4.287-23.714-.667-10.177-1.905-14.752-7.336-26.236-10.099-21.474-9.908-36.599.667-51.91 12.195-17.553 20.293-41.921 20.293-61.154 0-23.715-9.146-36.039-29.439-39.68-7.145-1.307-36.775-2.334-46.778-1.68Zm34.583 5.135c13.815 1.213 21.15 3.267 26.39 7.375 17.054 13.258 12.671 55.552-9.146 87.67-8.002 11.857-10.48 23.621-7.621 36.785 1.429 7.096 2.477 9.803 9.05 24.555 3.24 7.376 5.717 20.447 4.192 21.941-.667.653-1.143-.094-1.619-2.148-1.239-6.255-5.717-16.059-11.719-25.768-9.05-14.379-13.242-23.808-16.005-35.292-4.002-16.526-6.383-19.98-13.719-19.98-7.241 0-10.194 4.015-13.434 18.206-2.858 12.604-6.478 20.914-15.91 36.319-5.335 8.776-8.765 15.685-10.67 21.38-2.858 8.776-4.478 9.43-3.43 1.307.953-7.282 2.096-11.204 5.621-18.673 11.909-25.488 12.004-41.173.191-58.632-18.578-27.356-25.152-63.955-14.577-81.32 5.716-9.244 13.433-12.325 34.107-13.725 17.53-1.12 25.438-1.12 38.299 0Z" fill="#fff"/><path d="M231.691 76.28c13.815 1.213 21.15 3.267 26.39 7.375 17.054 13.258 12.671 55.552-9.146 87.67-8.002 11.857-10.48 23.621-7.621 36.785 1.429 7.096 2.477 9.803 9.05 24.555 3.24 7.376 5.717 20.447 4.192 21.941-.667.653-1.143-.094-1.619-2.148-1.239-6.255-5.717-16.059-11.719-25.768-9.05-14.379-13.242-23.808-16.005-35.292-4.002-16.526-6.383-19.98-13.719-19.98-7.241 0-10.194 4.015-13.434 18.206-2.858 12.604-6.478 20.914-15.91 36.319-5.335 8.776-8.765 15.685-10.67 21.38-2.858 8.776-4.478 9.43-3.43 1.307.953-7.282 2.096-11.204 5.621-18.673 11.909-25.488 12.004-41.173.191-58.632-18.578-27.356-25.152-63.955-14.577-81.32 5.716-9.244 13.433-12.325 34.107-13.725 17.53-1.12 25.438-1.12 38.299 0ZM63.728 76.84c-2.572.934-6.193 3.455-9.146 6.349-4.002 3.921-5.336 6.069-6.955 11.204-3.81 12.044-2 32.771 4.668 52.751 3.335 9.99 10.48 28.196 11.433 29.223.38.373.952-1.681 1.238-4.669.667-7.375 3.525-14.471 9.909-24.274 15.624-24.088 22.198-38.093 22.198-47.803 0-4.388-.477-5.602-4.192-10.737-8.765-12.137-18.007-15.872-29.153-12.044Zm15.339 5.509c4.287 2.147 12.004 11.11 12.67 14.845 1.62 8.029-4.287 22.314-17.339 42.2-3.715 5.696-7.717 12.231-8.86 14.659-1.239 2.334-2.668 4.294-3.335 4.294-1.333 0-7.24-17.179-9.622-28.196-1.143-5.135-1.715-11.857-1.715-19.98 0-11.67.095-12.417 2.858-17.646C59.25 81.975 69.825 77.68 79.067 82.35Z" fill="#fff"/><path d="M79.067 82.349c4.287 2.147 12.004 11.11 12.67 14.845 1.62 8.029-4.287 22.314-17.339 42.2-3.715 5.696-7.717 12.231-8.86 14.659-1.239 2.334-2.668 4.294-3.335 4.294-1.333 0-7.24-17.179-9.622-28.196-1.143-5.135-1.715-11.857-1.715-19.98 0-11.67.095-12.417 2.858-17.646C59.25 81.975 69.825 77.68 79.067 82.35ZM343.349 77.027c-4.478 1.96-10.48 7.47-14.672 13.444-2.381 3.455-2.953 5.135-2.953 9.243 0 9.617 6.574 23.715 22.198 47.71 6.383 9.803 9.242 16.899 9.908 24.274.286 2.988.858 5.042 1.239 4.669 1.715-1.774 11.718-29.13 14.386-39.213 4.097-15.686 4.859-32.585 1.905-42.294-1.81-5.602-2.953-7.656-7.05-11.671-7.717-7.47-16.958-9.803-24.961-6.162Zm17.435 6.349c5.145 2.894 9.241 9.056 10.766 16.058 1.333 6.256.571 21.941-1.525 31.371-2.191 10.177-8.193 27.542-9.432 27.542-.667 0-2.096-1.96-3.334-4.294-1.143-2.428-5.145-9.057-8.956-14.752-12.861-19.607-18.863-34.265-17.434-42.107.476-2.241 2.381-5.135 6.097-8.963 8.384-8.59 14.767-9.897 23.818-4.855Z" fill="#fff"/><path d="M360.784 83.376c5.145 2.894 9.241 9.056 10.766 16.058 1.333 6.256.571 21.941-1.525 31.371-2.191 10.177-8.193 27.542-9.432 27.542-.667 0-2.096-1.96-3.334-4.294-1.143-2.428-5.145-9.057-8.956-14.752-12.861-19.607-18.863-34.265-17.434-42.107.476-2.241 2.381-5.135 6.097-8.963 8.384-8.59 14.767-9.897 23.818-4.855ZM146.423 78.427c-17.911 7.19-29.439 20.26-35.06 39.774-2.762 9.803-4.287 26.515-3.429 37.625l.762 9.15 3.43 2.241c4.858 3.174 13.147 5.788 21.722 6.909 8.288 1.214 26.39 1.4 25.913.28-.19-.374-2.381-4.668-4.859-9.71-9.241-18.579-13.623-37.066-12.671-53.591.572-10.55 4.002-23.434 7.908-29.97 1.334-2.24 2.286-4.295 2.001-4.482-.191-.186-2.763.654-5.717 1.774Zm-5.24 8.683c.286.467-.381 3.922-1.429 7.75-5.144 19.606-1.905 44.348 8.861 67.782 1.524 3.361 2.477 6.536 2.191 7.002-1.334 2.148-22.77-.466-30.678-3.828-2.762-1.213-5.43-2.801-5.906-3.641-2.668-4.948-1.811-29.223 1.524-41.827 3.239-12.231 10.003-23.154 18.483-29.783 5.335-4.202 6.288-4.575 6.954-3.455Z" fill="#fff"/><path d="M141.183 87.11c.286.467-.381 3.922-1.429 7.75-5.144 19.606-1.905 44.348 8.861 67.782 1.524 3.361 2.477 6.536 2.191 7.002-1.334 2.148-22.77-.466-30.678-3.828-2.762-1.213-5.43-2.801-5.906-3.641-2.668-4.948-1.811-29.223 1.524-41.827 3.239-12.231 10.003-23.154 18.483-29.783 5.335-4.202 6.288-4.575 6.954-3.455ZM270.467 76.934c0 .373.666 1.587 1.429 2.707 2.477 3.455 6.287 14.378 7.717 21.754 3.429 18.86-.763 41.734-11.814 63.488-2.477 4.855-4.573 9.149-4.764 9.523-.476 1.12 17.626.934 25.914-.28 8.575-1.121 16.863-3.735 21.722-6.909l3.43-2.241.762-9.15c.857-11.11-.667-27.822-3.43-37.625-4.573-16.059-14.957-29.784-27.343-36.226-6.764-3.454-13.623-6.068-13.623-5.041Zm17.529 13.164c8.67 6.535 15.149 16.619 18.578 29.036 4.288 15.125 4.859 40.147 1.048 43.881-2.953 2.895-11.909 5.509-22.674 6.723-10.48 1.12-14.1.747-13.243-1.401 13.91-31.65 16.958-51.817 11.242-73.477-2.572-9.804-2.096-10.177 5.049-4.762Z" fill="#fff"/><path d="M287.996 90.098c8.67 6.535 15.149 16.619 18.578 29.036 4.288 15.125 4.859 40.147 1.048 43.881-2.953 2.895-11.909 5.509-22.674 6.723-10.48 1.12-14.1.747-13.243-1.401 13.91-31.65 16.958-51.817 11.242-73.477-2.572-9.804-2.096-10.177 5.049-4.762ZM116.127 91.218c-10.289 5.508-14.672 11.297-18.578 24.648-3.525 12.137-6.288 18.486-16.1 37.439-5.622 10.737-9.623 19.793-10.957 24.555-4.001 14.472-3.62 28.943.953 43.601l2 6.442 2.096-6.068c2.382-6.909 3.62-8.963 11.242-18.673 9.147-11.671 12.005-21.287 14.101-46.682 2.762-33.145 9.813-56.392 20.007-65.635 3.81-3.268 1.81-3.175-4.764.373Zm-17.625 42.574c-.762 4.388-2.287 18.953-2.858 27.356-.858 11.484-3.62 24.088-6.574 29.69-1.43 2.707-4.859 7.842-7.622 11.39-2.858 3.548-5.335 7.096-5.62 7.656-.382.934-.668.934-1.716 0-2.096-1.961-1.524-21.287.858-30.25 1.905-6.816 21.817-48.176 23.246-48.269.381-.094.476 1.027.286 2.427Z" fill="#fff"/><path d="M98.502 133.792c-.762 4.388-2.287 18.953-2.858 27.356-.858 11.484-3.62 24.088-6.574 29.69-1.43 2.707-4.859 7.842-7.622 11.39-2.858 3.548-5.335 7.096-5.62 7.656-.382.934-.668.934-1.716 0-2.096-1.961-1.524-21.287.858-30.25 1.905-6.816 21.817-48.176 23.246-48.269.381-.094.476 1.027.286 2.427ZM301.906 90.844c10.099 9.15 17.339 32.771 20.007 64.889 2.001 25.675 4.859 35.572 13.624 46.869 8.479 11.017 9.622 12.884 11.718 19.233l2.001 6.068 2.096-6.442c3.049-9.523 4.192-18.673 3.62-27.822-.857-12.885-3.811-21.661-13.624-40.427-10.003-19.233-11.813-23.341-15.815-36.412-3.334-11.017-5.907-15.779-11.146-20.354-3.716-3.267-12.29-8.122-14.386-8.122-.572 0 .285 1.12 1.905 2.52Zm26.2 46.683c1.429 3.547 5.335 11.203 8.574 17.085 9.813 18.02 12.195 25.115 13.338 39.213.572 7.563-.381 16.059-1.905 16.432-1.239.374-12.481-15.311-15.339-21.38-2.763-5.975-4.573-16.806-6.574-37.999-.857-8.963-1.715-17.086-2-18.02-.286-.84-.191-1.587.285-1.587.477 0 2.096 2.801 3.621 6.256Z" fill="#fff"/><path d="M328.106 137.527c1.429 3.547 5.335 11.203 8.574 17.085 9.813 18.02 12.195 25.115 13.338 39.213.572 7.563-.381 16.059-1.905 16.432-1.239.374-12.481-15.311-15.339-21.38-2.763-5.975-4.573-16.806-6.574-37.999-.857-8.963-1.715-17.086-2-18.02-.286-.84-.191-1.587.285-1.587.477 0 2.096 2.801 3.621 6.256ZM106.028 174.032c.858 4.762 5.431 13.164 9.813 17.926 4.954 5.415 13.433 9.897 21.913 11.671 7.907 1.68 13.623 1.773 23.913.28 8.955-1.214 9.05-1.401 5.525-8.777-4.287-9.056-10.479-11.857-29.248-13.444-19.435-1.587-27.248-3.735-30.868-8.59-1.619-2.147-1.619-2.147-1.048.934Zm31.535 12.324c13.814 1.307 17.054 2.241 21.722 6.442 5.335 4.949 4.573 6.256-4.287 7.096-13.243 1.214-26.105-2.334-34.012-9.336-5.526-4.949-5.24-6.536 1.143-5.696 2.668.28 9.622 1.027 15.434 1.494Z" fill="#fff"/><path d="M137.563 186.356c13.814 1.307 17.054 2.241 21.722 6.442 5.335 4.949 4.573 6.256-4.287 7.096-13.243 1.214-26.105-2.334-34.012-9.336-5.526-4.949-5.24-6.536 1.143-5.696 2.668.28 9.622 1.027 15.434 1.494ZM315.244 173.752c-3.62 4.295-11.718 6.349-30.01 7.936-19.055 1.587-25.343 4.482-29.63 13.445-3.144 6.629-2.953 7.656 1.334 8.402 25.438 4.109 44.301-1.68 54.019-16.712 4.859-7.562 8.193-17.646 4.287-13.071Zm-10.48 13.538c-6.478 8.87-21.436 14.005-36.965 12.604-8.86-.84-9.622-2.147-4.287-7.095 4.763-4.295 7.907-5.229 23.151-6.443 6.573-.56 12.099-1.213 12.29-1.493.19-.187 2.096-.374 4.096-.374h3.716l-2.001 2.801Z" fill="#fff"/><path d="M304.764 187.29c-6.478 8.87-21.436 14.005-36.965 12.604-8.86-.84-9.622-2.147-4.287-7.095 4.763-4.295 7.907-5.229 23.151-6.443 6.573-.56 12.099-1.213 12.29-1.493.19-.187 2.096-.374 4.096-.374h3.716l-2.001 2.801ZM101.836 193.825c-1.715 3.361-6.288 10.831-10.194 16.526-9.813 14.378-11.909 20.167-12.385 34.358-.381 9.803-.095 12.324 2 20.447 3.145 11.857 8.385 22.127 16.483 32.771 5.906 7.562 20.959 21.94 23.055 21.94.477 0 .477-1.4 0-3.548-1.524-6.348-.952-22.5.953-30.53 3.716-15.125 8.193-22.314 23.913-38.373 11.719-12.044 19.531-22.407 22.389-29.689.953-2.428 1.524-4.482 1.334-4.669-.191-.28-2.763.187-5.621.934-7.622 2.054-23.532 1.307-30.773-1.494-9.337-3.454-19.816-12.324-26.485-22.407l-1.525-2.334-3.144 6.068Zm11.433 11.578c10.861 9.989 23.056 14.564 38.775 14.564 5.621 0 8.861.374 8.861 1.027 0 2.241-8.194 12.324-19.245 23.808-6.479 6.722-13.338 14.752-15.339 17.926-6.574 10.457-11.147 25.489-11.147 36.879 0 9.056-1.048 9.523-6.764 3.455-7.336-7.843-12.766-15.686-16.958-24.368-5.812-11.764-7.24-18.02-7.146-31.651 0-14.845 1.525-19.42 11.814-34.732 4.192-6.255 7.622-11.67 7.622-12.137 0-2.147 3.811-.093 9.527 5.229Z" fill="#fff"/><path d="M113.269 205.403c10.861 9.989 23.056 14.564 38.775 14.564 5.621 0 8.861.374 8.861 1.027 0 2.241-8.194 12.324-19.245 23.808-6.479 6.722-13.338 14.752-15.339 17.926-6.574 10.457-11.147 25.489-11.147 36.879 0 9.056-1.048 9.523-6.764 3.455-7.336-7.843-12.766-15.686-16.958-24.368-5.812-11.764-7.24-18.02-7.146-31.651 0-14.845 1.525-19.42 11.814-34.732 4.192-6.255 7.622-11.67 7.622-12.137 0-2.147 3.811-.093 9.527 5.229ZM209.016 195.039c-3.144 12.231-9.146 28.01-15.338 40.334-6.098 12.137-9.908 23.808-9.908 30.437 0 6.535 1.143 7.935 10.67 12.697 8.384 4.108 9.337 4.388 16.672 4.388 7.432.094 8.098-.093 16.863-4.481 11.052-5.602 12.005-7.283 10.194-17.833-1.619-8.869-3.239-13.258-10.098-27.076-6.193-12.324-12.576-29.129-14.767-39.026-.763-2.987-1.525-5.602-1.906-5.788-.286-.187-1.429 2.614-2.382 6.348Zm6.669 22.314c2.001 5.322 6.098 14.472 9.146 20.447 6.003 11.858 8.48 19.607 8.48 26.796 0 5.602-.763 6.535-9.146 10.55-5.336 2.614-7.241 2.988-13.053 2.988-6.002-.094-7.812-.467-13.814-3.455-7.812-3.828-9.241-5.975-8.289-12.231 1.239-7.842 3.621-14.378 9.432-26.142 3.335-6.722 7.05-14.845 8.194-18.206 3.334-9.523 3.715-10.27 4.573-10.27.476 0 2.477 4.295 4.477 9.523Z" fill="#fff"/><path d="M215.685 217.353c2.001 5.322 6.098 14.472 9.146 20.447 6.003 11.858 8.48 19.607 8.48 26.796 0 5.602-.763 6.535-9.146 10.55-5.336 2.614-7.241 2.988-13.053 2.988-6.002-.094-7.812-.467-13.814-3.455-7.812-3.828-9.241-5.975-8.289-12.231 1.239-7.842 3.621-14.378 9.432-26.142 3.335-6.722 7.05-14.845 8.194-18.206 3.334-9.523 3.715-10.27 4.573-10.27.476 0 2.477 4.295 4.477 9.523ZM313.815 193.359c-7.145 10.27-17.53 17.645-28.581 20.54-7.05 1.774-19.436 1.774-26.2.093-2.858-.747-5.43-1.214-5.621-.934-.19.187.381 2.241 1.334 4.669 2.858 7.282 10.67 17.645 22.389 29.689 15.719 16.059 20.197 23.248 23.913 38.373 1.905 8.03 2.477 24.182.952 30.53-.476 1.961-.476 3.548 0 3.548 1.715 0 15.72-12.884 20.96-19.326 15.244-18.86 21.722-36.692 20.674-57.326-.667-12.604-3.144-19.14-12.48-32.864-3.907-5.695-8.48-13.071-10.099-16.339-1.62-3.174-3.144-5.788-3.239-5.788-.191 0-2.001 2.334-4.002 5.135Zm5.621 7.469c.286.84 3.716 6.255 7.622 12.044 10.099 15.031 11.528 19.326 11.432 35.105-.095 11.017-.381 13.537-2.572 19.886-4.763 13.631-11.337 24.275-22.008 35.665-5.144 5.602-6.288 4.949-6.288-3.921 0-6.442-1.81-15.872-4.668-23.808-3.43-9.803-9.241-18.112-21.722-30.903-11.146-11.484-19.34-21.661-19.34-23.902 0-.653 3.239-1.027 8.86-1.027 15.72 0 27.629-4.481 38.49-14.471 6.574-6.069 9.146-7.282 10.194-4.668Z" fill="#fff"/><path d="M319.436 200.828c.286.84 3.716 6.255 7.622 12.044 10.099 15.031 11.528 19.326 11.432 35.105-.095 11.017-.381 13.537-2.572 19.886-4.763 13.631-11.337 24.275-22.008 35.665-5.144 5.602-6.288 4.949-6.288-3.921 0-6.442-1.81-15.872-4.668-23.808-3.43-9.803-9.241-18.112-21.722-30.903-11.146-11.484-19.34-21.661-19.34-23.902 0-.653 3.239-1.027 8.86-1.027 15.72 0 27.629-4.481 38.49-14.471 6.574-6.069 9.146-7.282 10.194-4.668ZM144.041 264.969c-18.577 28.943-18.006 58.166 1.334 78.333 15.339 15.872 38.299 19.513 53.162 8.496 6.859-5.135 9.527-10.737 9.527-20.26 0-6.536-.381-8.03-2.668-11.951-3.144-5.135-9.241-9.803-16.768-12.791-23.151-9.056-36.298-23.994-38.966-44.161l-.666-5.415-4.955 7.749Zm5.907 15.218c6.288 12.885 16.768 21.848 35.822 30.624 13.815 6.255 19.15 13.538 17.53 23.901-.857 5.322-2.286 8.123-6.383 11.951-11.718 11.017-34.298 8.029-47.921-6.349-12.195-12.978-16.387-30.53-11.719-49.296 1.334-5.602 7.05-17.833 8.289-17.833.476 0 2.477 3.174 4.382 7.002Z" fill="#fff"/><path d="M149.948 280.187c6.288 12.885 16.768 21.848 35.822 30.624 13.815 6.255 19.15 13.538 17.53 23.901-.857 5.322-2.286 8.123-6.383 11.951-11.718 11.017-34.298 8.029-47.921-6.349-12.195-12.978-16.387-30.53-11.719-49.296 1.334-5.602 7.05-17.833 8.289-17.833.476 0 2.477 3.174 4.382 7.002ZM272.563 264.876c-1.334 9.43-5.431 17.833-11.909 24.742-5.812 6.255-16.196 13.164-24.104 16.152-17.816 6.535-25.437 18.859-21.055 33.797 2.096 6.816 6.193 11.391 13.529 14.939 15.434 7.469 32.963 3.548 47.159-10.364 21.436-21.007 21.626-51.257.476-82.347l-2.953-4.388-1.143 7.469Zm8.86 15.032c7.907 16.805 8.003 35.198.286 49.576-3.811 7.096-13.053 16.432-19.34 19.607-12.957 6.348-28.201 5.321-36.489-2.428-4.097-3.828-5.526-6.629-6.384-11.951-1.619-10.363 3.716-17.645 17.53-23.901 19.055-8.776 29.534-17.739 35.822-30.623 1.906-3.828 3.906-7.003 4.383-7.003.571 0 2.382 3.081 4.192 6.723Z" fill="#fff"/><path d="M281.423 279.908c7.907 16.805 8.003 35.198.286 49.576-3.811 7.096-13.053 16.432-19.34 19.607-12.957 6.348-28.201 5.321-36.489-2.428-4.097-3.828-5.526-6.629-6.384-11.951-1.619-10.363 3.716-17.645 17.53-23.901 19.055-8.776 29.534-17.739 35.822-30.623 1.906-3.828 3.906-7.003 4.383-7.003.571 0 2.382 3.081 4.192 6.723ZM184.056 281.028c1.047 7.002 5.049 13.164 12.575 19.233 3.621 2.987 8.384 7.095 10.385 9.149l3.715 3.828 7.241-6.255c15.339-13.164 17.721-16.059 19.626-22.874.953-3.455 1.429-6.536 1.048-6.909-.286-.374-1.81.466-3.239 1.867-3.144 2.988-10.099 5.975-18.007 7.749-5.335 1.214-6.764 1.214-12.385-.093-7.621-1.774-13.814-4.295-18.292-7.656l-3.239-2.428.572 4.389Zm16.863 9.429c6.954 1.868 13.338 1.774 21.15-.186 10.289-2.615 9.813-1.401-4.478 10.643-2.572 2.241-5.335 4.015-6.288 4.015-1.524 0-14.386-9.99-16.768-12.978-2.572-3.268-1.429-3.548 6.384-1.494Z" fill="#fff"/><path d="M200.919 290.457c6.954 1.868 13.338 1.774 21.15-.186 10.289-2.615 9.813-1.401-4.478 10.643-2.572 2.241-5.335 4.015-6.288 4.015-1.524 0-14.386-9.99-16.768-12.978-2.572-3.268-1.429-3.548 6.384-1.494ZM39.815 304.182c9.146 12.978 19.72 17.179 48.683 19.42 14.386 1.12 22.008 2.708 29.058 6.069 2.572 1.214 4.859 2.147 5.049 1.96.763-.746-8.479-7.189-13.338-9.429-6.669-2.988-14.48-4.575-32.201-6.536-18.864-2.054-29.249-5.788-36.203-13.071-3.526-3.641-4.192-2.707-1.048 1.587ZM381.934 302.595c-6.955 7.283-17.339 11.017-36.203 13.071-17.721 1.961-25.533 3.548-32.202 6.536-4.859 2.24-14.1 8.683-13.338 9.429.191.187 2.477-.746 5.05-1.96 7.05-3.361 14.671-4.949 29.057-6.069 28.963-2.241 39.538-6.442 48.684-19.42 3.144-4.294 2.477-5.228-1.048-1.587ZM46.579 325.376c9.718 8.122 18.578 10.176 48.112 11.203 23.246.747 22.96.747 35.25 5.135 3.525 1.307-3.62-4.014-8.574-6.348-7.526-3.548-17.911-5.229-32.583-5.229-16.482 0-28.772-1.307-35.536-3.641a351.128 351.128 0 0 1-7.145-2.428c-1.525-.56-1.525-.28.476 1.308ZM373.264 325.096c-5.907 3.081-14.005 4.201-36.108 5.041-22.96.841-28.39 1.681-36.393 5.509-4.573 2.147-11.147 7.282-7.908 6.069 12.29-4.389 12.004-4.389 35.251-5.136 29.343-.933 37.727-2.894 48.112-11.017 2.763-2.24.952-2.52-2.954-.466ZM54.582 340.874c2.096 1.774 5.907 4.295 8.574 5.509 9.908 4.481 18.006 5.228 42.967 3.921 8.194-.467 15.53-.374 19.055.28 3.144.467 7.24 1.214 9.051 1.494l3.334.56-3.334-1.867c-1.811-1.027-6.098-2.801-9.528-4.015-5.716-1.867-8.193-2.054-30.963-2.147-26.104-.187-29.058-.561-39.061-5.229l-3.81-1.867 3.715 3.361ZM368.596 339.007c-1.334.747-5.145 2.334-8.574 3.455-5.717 1.867-8.098 2.054-30.487 2.147-25.819.093-29.63.56-38.395 4.855-5.525 2.707-5.335 3.641.382 2.054 4.382-1.214 15.148-1.494 39.918-1.027 11.242.28 16.101 0 20.484-1.214 6.097-1.587 14.576-6.069 17.815-9.523 2.382-2.521 2.192-2.614-1.143-.747ZM148.9 360.481c10.766 16.339 26.772 28.196 45.35 33.424 12.004 3.455 17.339 3.828 26.199 2.054 14.862-2.987 29.153-10.083 39.442-19.513 4.955-4.575 14.386-15.965 14.386-17.366 0-.373-3.81.28-8.383 1.494-20.674 5.229-39.633 5.509-50.875.747-3.24-1.4-3.716-1.4-9.051.56-6.955 2.614-21.627 3.455-32.869 1.961-7.431-1.121-20.388-3.921-24.294-5.415-1.62-.654-1.62-.56.095 2.054Zm70.596 7.002c8.575 2.147 19.436 2.428 32.012.747 4.668-.56 8.765-.747 9.146-.467 1.715 1.774-12.671 12.791-22.77 17.459-18.388 8.403-34.012 8.59-52.59.56-9.051-3.921-25.723-16.432-24.008-18.019.285-.28 5.049 0 10.575.654 11.432 1.4 26.39.747 32.868-1.307 5.621-1.774 6.098-1.774 14.767.373Z" fill="#fff"/><path d="M219.496 367.483c8.575 2.147 19.436 2.428 32.012.747 4.668-.56 8.765-.747 9.146-.467 1.715 1.774-12.671 12.791-22.77 17.459-18.388 8.403-34.012 8.59-52.59.56-9.051-3.921-25.723-16.432-24.008-18.019.285-.28 5.049 0 10.575.654 11.432 1.4 26.39.747 32.868-1.307 5.621-1.774 6.098-1.774 14.767.373Z" fill="#fff"/><defs><filter id="a" x="0" y="0" width="420" height="412.132" filterUnits="userSpaceOnUse" color-interpolation-filters="sRGB"><feFlood flood-opacity="0" result="BackgroundImageFix"/><feColorMatrix in="SourceAlpha" values="0 0 0 0 0 0 0 0 0 0 0 0 0 0 0 0 0 0 127 0" result="hardAlpha"/><feMorphology radius="15" operator="dilate" in="SourceAlpha" result="effect1_dropShadow_127_451"/><feOffset/><feGaussianBlur stdDeviation="10"/><feComposite in2="hardAlpha" operator="out"/><feColorMatrix values="0 0 0 0 0 0 0 0 0 0.2 0 0 0 0 0.2 0 0 0 1 0"/><feBlend in2="BackgroundImageFix" result="effect1_dropShadow_127_451"/><feBlend in="SourceGraphic" in2="effect1_dropShadow_127_451" result="shape"/></filter></defs></svg>