<svg width="auto" height="auto" viewBox="0 0 332 152" fill="none" xmlns="http://www.w3.org/2000/svg">
<path d="M125.048 100.147H132.032V146.875H125.048V100.147ZM152.743 100.147H169.159C173.287 100.147 176.503 100.411 178.807 100.939C181.159 101.419 182.863 102.307 183.919 103.603C185.023 104.899 185.575 106.795 185.575 109.291V117.355C185.575 120.139 184.423 122.299 182.119 123.835C179.863 125.323 176.983 126.067 173.479 126.067L188.455 146.875H179.887L166.495 126.931H159.727V146.875H152.743V100.147ZM168.871 122.323C172.327 122.323 174.799 121.915 176.287 121.099C177.823 120.235 178.591 118.699 178.591 116.491V110.011C178.591 106.507 175.567 104.755 169.519 104.755H159.727V122.323H168.871Z" fill="#FFE925"/>
<path d="M125.048 100.147V99.147H124.048V100.147H125.048ZM132.032 100.147H133.032V99.147H132.032V100.147ZM132.032 146.875V147.875H133.032V146.875H132.032ZM125.048 146.875H124.048V147.875H125.048V146.875ZM125.048 101.147H132.032V99.147H125.048V101.147ZM131.032 100.147V146.875H133.032V100.147H131.032ZM132.032 145.875H125.048V147.875H132.032V145.875ZM126.048 146.875V100.147H124.048V146.875H126.048ZM152.743 100.147V99.147H151.743V100.147H152.743ZM178.807 100.939L178.583 101.914L178.595 101.916L178.607 101.919L178.807 100.939ZM183.919 103.603L183.143 104.235L183.15 104.243L183.157 104.251L183.919 103.603ZM182.119 123.835L182.669 124.67L182.673 124.667L182.119 123.835ZM173.479 126.067V125.067H171.527L172.667 126.651L173.479 126.067ZM188.455 146.875V147.875H190.406L189.266 146.291L188.455 146.875ZM179.887 146.875L179.056 147.432L179.354 147.875H179.887V146.875ZM166.495 126.931L167.325 126.374L167.028 125.931H166.495V126.931ZM159.727 126.931V125.931H158.727V126.931H159.727ZM159.727 146.875V147.875H160.727V146.875H159.727ZM152.743 146.875H151.743V147.875H152.743V146.875ZM176.287 121.099L176.768 121.976L176.777 121.971L176.287 121.099ZM159.727 104.755V103.755H158.727V104.755H159.727ZM159.727 122.323H158.727V123.323H159.727V122.323ZM152.743 101.147H169.159V99.147H152.743V101.147ZM169.159 101.147C173.258 101.147 176.387 101.41 178.583 101.914L179.03 99.9643C176.618 99.4115 173.315 99.147 169.159 99.147V101.147ZM178.607 101.919C180.829 102.372 182.285 103.181 183.143 104.235L184.694 102.971C183.44 101.433 181.489 100.466 179.007 99.9592L178.607 101.919ZM183.157 104.251C184.049 105.299 184.575 106.925 184.575 109.291H186.575C186.575 106.665 185.996 104.499 184.68 102.955L183.157 104.251ZM184.575 109.291V117.355H186.575V109.291H184.575ZM184.575 117.355C184.575 119.807 183.588 121.654 181.564 123.003L182.673 124.667C185.257 122.944 186.575 120.471 186.575 117.355H184.575ZM181.568 123C179.518 124.353 176.844 125.067 173.479 125.067V127.067C177.121 127.067 180.208 126.293 182.669 124.67L181.568 123ZM172.667 126.651L187.643 147.459L189.266 146.291L174.29 125.483L172.667 126.651ZM188.455 145.875H179.887V147.875H188.455V145.875ZM180.717 146.318L167.325 126.374L165.664 127.488L179.056 147.432L180.717 146.318ZM166.495 125.931H159.727V127.931H166.495V125.931ZM158.727 126.931V146.875H160.727V126.931H158.727ZM159.727 145.875H152.743V147.875H159.727V145.875ZM153.743 146.875V100.147H151.743V146.875H153.743ZM168.871 123.323C172.354 123.323 175.045 122.92 176.768 121.976L175.806 120.222C174.552 120.91 172.299 121.323 168.871 121.323V123.323ZM176.777 121.971C178.711 120.883 179.591 118.953 179.591 116.491H177.591C177.591 118.445 176.934 119.587 175.796 120.227L176.777 121.971ZM179.591 116.491V110.011H177.591V116.491H179.591ZM179.591 110.011C179.591 107.903 178.646 106.259 176.824 105.204C175.085 104.196 172.606 103.755 169.519 103.755V105.755C172.479 105.755 174.536 106.19 175.821 106.934C177.024 107.631 177.591 108.615 177.591 110.011H179.591ZM169.519 103.755H159.727V105.755H169.519V103.755ZM158.727 104.755V122.323H160.727V104.755H158.727ZM159.727 123.323H168.871V121.323H159.727V123.323Z" fill="black"/>
<path d="M125.048 17.1782H132.032V63.9062H125.048V17.1782ZM172.831 64.6263C170.623 64.6263 168.655 64.5303 166.927 64.3383C165.247 64.1463 163.471 63.7862 161.599 63.2582C159.487 62.6822 157.711 61.9622 156.271 61.0982C154.831 60.1862 153.655 58.9622 152.743 57.4262C151.783 55.7942 151.303 53.9702 151.303 51.9542V29.8502C151.303 27.1622 151.999 24.8582 153.391 22.9382C154.783 21.0182 156.703 19.6262 159.151 18.7622C161.503 17.9462 163.735 17.3702 165.847 17.0342C168.007 16.6502 170.335 16.4582 172.831 16.4582C178.783 16.4582 184.159 16.8422 188.959 17.6102V23.0102C187.135 22.5782 184.519 22.1942 181.111 21.8582C177.751 21.4742 175.039 21.2822 172.975 21.2822C163.135 21.2822 158.215 24.1142 158.215 29.7782V51.8102C158.215 53.3462 158.671 54.6902 159.583 55.8422C160.543 56.9942 161.839 57.8342 163.471 58.3622C165.007 58.9382 166.543 59.3462 168.079 59.5862C169.615 59.7782 171.343 59.8742 173.263 59.8742C176.479 59.8742 179.911 59.4422 183.559 58.5782V42.2342H172.615V37.3382H190.039V62.4662C183.799 63.9062 178.063 64.6263 172.831 64.6263ZM209.336 17.1782H240.728V22.0742H216.32V37.3382H238.352V42.2342H216.32V59.0102H241.448V63.9062H209.336V17.1782ZM259.741 17.1782H276.157C280.285 17.1782 283.501 17.4422 285.805 17.9702C288.157 18.4502 289.861 19.3382 290.917 20.6342C292.021 21.9302 292.573 23.8262 292.573 26.3222V34.3862C292.573 37.1702 291.421 39.3302 289.117 40.8662C286.861 42.3542 283.981 43.0982 280.477 43.0982L295.453 63.9062H286.885L273.493 43.9622H266.725V63.9062H259.741V17.1782ZM275.869 39.3542C279.325 39.3542 281.797 38.9462 283.285 38.1302C284.821 37.2662 285.589 35.7302 285.589 33.5222V27.0422C285.589 23.5382 282.565 21.7862 276.517 21.7862H266.725V39.3542H275.869Z" fill="#FFE925"/>
<path d="M125.048 17.1782V16.1782H124.048V17.1782H125.048ZM132.032 17.1782H133.032V16.1782H132.032V17.1782ZM132.032 63.9062V64.9062H133.032V63.9062H132.032ZM125.048 63.9062H124.048V64.9062H125.048V63.9062ZM125.048 18.1782H132.032V16.1782H125.048V18.1782ZM131.032 17.1782V63.9062H133.032V17.1782H131.032ZM132.032 62.9062H125.048V64.9062H132.032V62.9062ZM126.048 63.9062V17.1782H124.048V63.9062H126.048ZM166.927 64.3383L166.813 65.3318L166.816 65.3321L166.927 64.3383ZM161.599 63.2582L161.87 62.2958L161.862 62.2935L161.599 63.2582ZM156.271 61.0982L155.736 61.9431L155.746 61.9495L155.756 61.9557L156.271 61.0982ZM152.743 57.4262L151.881 57.9333L151.883 57.9368L152.743 57.4262ZM153.391 22.9382L154.2 23.5252L154.2 23.5252L153.391 22.9382ZM159.151 18.7622L158.823 17.8175L158.818 17.8193L159.151 18.7622ZM165.847 17.0342L166.004 18.0218L166.013 18.0204L166.022 18.0188L165.847 17.0342ZM188.959 17.6102H189.959V16.7575L189.117 16.6228L188.959 17.6102ZM188.959 23.0102L188.728 23.9833L189.959 24.2748V23.0102H188.959ZM181.111 21.8582L180.997 22.8518L181.005 22.8527L181.013 22.8534L181.111 21.8582ZM159.583 55.8422L158.799 56.463L158.806 56.4728L158.814 56.4824L159.583 55.8422ZM163.471 58.3622L163.822 57.4259L163.8 57.4179L163.779 57.4108L163.471 58.3622ZM168.079 59.5862L167.924 60.5743L167.939 60.5766L167.955 60.5785L168.079 59.5862ZM183.559 58.5782L183.789 59.5513L184.559 59.3691V58.5782H183.559ZM183.559 42.2342H184.559V41.2342H183.559V42.2342ZM172.615 42.2342H171.615V43.2342H172.615V42.2342ZM172.615 37.3382V36.3382H171.615V37.3382H172.615ZM190.039 37.3382H191.039V36.3382H190.039V37.3382ZM190.039 62.4662L190.264 63.4406L191.039 63.2618V62.4662H190.039ZM172.831 63.6263C170.65 63.6263 168.72 63.5314 167.037 63.3444L166.816 65.3321C168.589 65.5291 170.595 65.6263 172.831 65.6263V63.6263ZM167.04 63.3447C165.421 63.1596 163.698 62.8113 161.87 62.2958L161.327 64.2207C163.243 64.7612 165.073 65.1329 166.813 65.3318L167.04 63.3447ZM161.862 62.2935C159.813 61.7347 158.127 61.0459 156.785 60.2408L155.756 61.9557C157.294 62.8786 159.16 63.6298 161.336 64.223L161.862 62.2935ZM156.806 60.2534C155.505 59.4298 154.438 58.323 153.603 56.9157L151.883 57.9368C152.871 59.6015 154.156 60.9427 155.736 61.9431L156.806 60.2534ZM153.605 56.9192C152.741 55.4509 152.303 53.8039 152.303 51.9542H150.303C150.303 54.1366 150.824 56.1376 151.881 57.9333L153.605 56.9192ZM152.303 51.9542V29.8502H150.303V51.9542H152.303ZM152.303 29.8502C152.303 27.3438 152.948 25.2522 154.2 23.5252L152.581 22.3513C151.049 24.4643 150.303 26.9807 150.303 29.8502H152.303ZM154.2 23.5252C155.462 21.7851 157.208 20.5084 159.484 19.7052L158.818 17.8193C156.197 18.7441 154.103 20.2514 152.581 22.3513L154.2 23.5252ZM159.478 19.707C161.784 18.9072 163.958 18.3472 166.004 18.0218L165.69 16.0467C163.511 16.3933 161.222 16.9853 158.823 17.8175L159.478 19.707ZM166.022 18.0188C168.117 17.6464 170.386 17.4582 172.831 17.4582V15.4582C170.284 15.4582 167.897 15.6541 165.672 16.0497L166.022 18.0188ZM172.831 17.4582C178.741 17.4582 184.063 17.8397 188.801 18.5977L189.117 16.6228C184.254 15.8448 178.824 15.4582 172.831 15.4582V17.4582ZM187.959 17.6102V23.0102H189.959V17.6102H187.959ZM189.189 22.0372C187.3 21.5897 184.631 21.2005 181.209 20.8631L181.013 22.8534C184.406 23.188 186.97 23.5668 188.728 23.9833L189.189 22.0372ZM181.224 20.8647C177.847 20.4788 175.093 20.2822 172.975 20.2822V22.2822C174.985 22.2822 177.654 22.4697 180.997 22.8518L181.224 20.8647ZM172.975 20.2822C167.992 20.2822 164.092 20.9936 161.406 22.5396C158.637 24.1335 157.215 26.5875 157.215 29.7782H159.215C159.215 27.305 160.253 25.511 162.404 24.2729C164.638 22.9869 168.118 22.2822 172.975 22.2822V20.2822ZM157.215 29.7782V51.8102H159.215V29.7782H157.215ZM157.215 51.8102C157.215 53.5605 157.74 55.1258 158.799 56.463L160.367 55.2215C159.601 54.2547 159.215 53.1319 159.215 51.8102H157.215ZM158.814 56.4824C159.912 57.7996 161.378 58.7361 163.163 59.3137L163.779 57.4108C162.3 56.9324 161.173 56.1889 160.351 55.2021L158.814 56.4824ZM163.12 59.2986C164.716 59.8971 166.318 60.3232 167.924 60.5743L168.233 58.5982C166.768 58.3693 165.298 57.9794 163.822 57.4259L163.12 59.2986ZM167.955 60.5785C169.54 60.7767 171.311 60.8742 173.263 60.8742V58.8742C171.375 58.8742 169.689 58.7798 168.203 58.594L167.955 60.5785ZM173.263 60.8742C176.568 60.8742 180.078 60.4303 183.789 59.5513L183.328 57.6052C179.744 58.4542 176.39 58.8742 173.263 58.8742V60.8742ZM184.559 58.5782V42.2342H182.559V58.5782H184.559ZM183.559 41.2342H172.615V43.2342H183.559V41.2342ZM173.615 42.2342V37.3382H171.615V42.2342H173.615ZM172.615 38.3382H190.039V36.3382H172.615V38.3382ZM189.039 37.3382V62.4662H191.039V37.3382H189.039ZM189.814 61.4919C183.632 62.9185 177.972 63.6263 172.831 63.6263V65.6263C178.153 65.6263 183.966 64.894 190.264 63.4406L189.814 61.4919ZM209.336 17.1782V16.1782H208.336V17.1782H209.336ZM240.728 17.1782H241.728V16.1782H240.728V17.1782ZM240.728 22.0742V23.0742H241.728V22.0742H240.728ZM216.32 22.0742V21.0742H215.32V22.0742H216.32ZM216.32 37.3382H215.32V38.3382H216.32V37.3382ZM238.352 37.3382H239.352V36.3382H238.352V37.3382ZM238.352 42.2342V43.2342H239.352V42.2342H238.352ZM216.32 42.2342V41.2342H215.32V42.2342H216.32ZM216.32 59.0102H215.32V60.0102H216.32V59.0102ZM241.448 59.0102H242.448V58.0102H241.448V59.0102ZM241.448 63.9062V64.9062H242.448V63.9062H241.448ZM209.336 63.9062H208.336V64.9062H209.336V63.9062ZM209.336 18.1782H240.728V16.1782H209.336V18.1782ZM239.728 17.1782V22.0742H241.728V17.1782H239.728ZM240.728 21.0742H216.32V23.0742H240.728V21.0742ZM215.32 22.0742V37.3382H217.32V22.0742H215.32ZM216.32 38.3382H238.352V36.3382H216.32V38.3382ZM237.352 37.3382V42.2342H239.352V37.3382H237.352ZM238.352 41.2342H216.32V43.2342H238.352V41.2342ZM215.32 42.2342V59.0102H217.32V42.2342H215.32ZM216.32 60.0102H241.448V58.0102H216.32V60.0102ZM240.448 59.0102V63.9062H242.448V59.0102H240.448ZM241.448 62.9062H209.336V64.9062H241.448V62.9062ZM210.336 63.9062V17.1782H208.336V63.9062H210.336ZM259.741 17.1782V16.1782H258.741V17.1782H259.741ZM285.805 17.9702L285.582 18.945L285.594 18.9477L285.605 18.9501L285.805 17.9702ZM290.917 20.6342L290.142 21.2659L290.149 21.2744L290.156 21.2827L290.917 20.6342ZM289.117 40.8662L289.668 41.701L289.672 41.6983L289.117 40.8662ZM280.477 43.0982V42.0982H278.526L279.666 43.6824L280.477 43.0982ZM295.453 63.9062V64.9062H297.405L296.265 63.3221L295.453 63.9062ZM286.885 63.9062L286.055 64.4637L286.352 64.9062H286.885V63.9062ZM273.493 43.9622L274.324 43.4048L274.026 42.9622H273.493V43.9622ZM266.725 43.9622V42.9622H265.725V43.9622H266.725ZM266.725 63.9062V64.9062H267.725V63.9062H266.725ZM259.741 63.9062H258.741V64.9062H259.741V63.9062ZM283.285 38.1302L283.766 39.0071L283.776 39.0018L283.285 38.1302ZM266.725 21.7862V20.7862H265.725V21.7862H266.725ZM266.725 39.3542H265.725V40.3542H266.725V39.3542ZM259.741 18.1782H276.157V16.1782H259.741V18.1782ZM276.157 18.1782C280.257 18.1782 283.386 18.4417 285.582 18.945L286.029 16.9955C283.617 16.4428 280.314 16.1782 276.157 16.1782V18.1782ZM285.605 18.9501C287.828 19.4036 289.284 20.2126 290.142 21.2659L291.693 20.0026C290.439 18.4639 288.487 17.4969 286.005 16.9904L285.605 18.9501ZM290.156 21.2827C291.048 22.3298 291.573 23.956 291.573 26.3222H293.573C293.573 23.6965 292.995 21.5307 291.679 19.9858L290.156 21.2827ZM291.573 26.3222V34.3862H293.573V26.3222H291.573ZM291.573 34.3862C291.573 36.8381 290.587 38.6849 288.563 40.0342L289.672 41.6983C292.256 39.9756 293.573 37.5024 293.573 34.3862H291.573ZM288.567 40.0315C286.516 41.3839 283.843 42.0982 280.477 42.0982V44.0982C284.12 44.0982 287.207 43.3246 289.668 41.701L288.567 40.0315ZM279.666 43.6824L294.642 64.4904L296.265 63.3221L281.289 42.5141L279.666 43.6824ZM295.453 62.9062H286.885V64.9062H295.453V62.9062ZM287.716 63.3488L274.324 43.4048L272.663 44.5197L286.055 64.4637L287.716 63.3488ZM273.493 42.9622H266.725V44.9622H273.493V42.9622ZM265.725 43.9622V63.9062H267.725V43.9622H265.725ZM266.725 62.9062H259.741V64.9062H266.725V62.9062ZM260.741 63.9062V17.1782H258.741V63.9062H260.741ZM275.869 40.3542C279.353 40.3542 282.044 39.9517 283.766 39.0071L282.805 37.2534C281.551 37.9408 279.298 38.3542 275.869 38.3542V40.3542ZM283.776 39.0018C285.71 37.9139 286.589 35.9847 286.589 33.5222H284.589C284.589 35.4758 283.933 36.6186 282.795 37.2587L283.776 39.0018ZM286.589 33.5222V27.0422H284.589V33.5222H286.589ZM286.589 27.0422C286.589 24.9347 285.644 23.2904 283.823 22.235C282.084 21.2277 279.605 20.7862 276.517 20.7862V22.7862C279.478 22.7862 281.535 23.2208 282.82 23.9655C284.022 24.6621 284.589 25.6458 284.589 27.0422H286.589ZM276.517 20.7862H266.725V22.7862H276.517V20.7862ZM265.725 21.7862V39.3542H267.725V21.7862H265.725ZM266.725 40.3542H275.869V38.3542H266.725V40.3542Z" fill="black"/>
<path d="M48.8 30.8H4.8V17.2H112.2V30.8H68.4V147H48.8V30.8Z" fill="#FFE925"/>
<path d="M48.8 30.8H49.8V29.8H48.8V30.8ZM4.8 30.8H3.8V31.8H4.8V30.8ZM4.8 17.2V16.2H3.8V17.2H4.8ZM112.2 17.2H113.2V16.2H112.2V17.2ZM112.2 30.8V31.8H113.2V30.8H112.2ZM68.4 30.8V29.8H67.4V30.8H68.4ZM68.4 147V148H69.4V147H68.4ZM48.8 147H47.8V148H48.8V147ZM48.8 29.8H4.8V31.8H48.8V29.8ZM5.8 30.8V17.2H3.8V30.8H5.8ZM4.8 18.2H112.2V16.2H4.8V18.2ZM111.2 17.2V30.8H113.2V17.2H111.2ZM112.2 29.8H68.4V31.8H112.2V29.8ZM67.4 30.8V147H69.4V30.8H67.4ZM68.4 146H48.8V148H68.4V146ZM49.8 147V30.8H47.8V147H49.8Z" fill="black"/>
</svg>
