<svg width="100" height="100" viewBox="0 0 100 100" fill="none" xmlns="http://www.w3.org/2000/svg">
<path fill-rule="evenodd" clip-rule="evenodd" d="M79.8828 72.0796C79.8828 59.4093 73.9531 47.4687 63.8594 39.8108C60.8516 37.5296 57.9031 35.2921 55.5047 33.4733C52.25 31.003 47.75 31.003 44.4953 33.4733C42.0969 35.2921 39.1484 37.5296 36.1406 39.8108C26.0469 47.4687 20.1172 59.4093 20.1172 72.0796C20.1172 72.3827 20.1172 72.6874 20.1172 72.989C20.1172 81.8671 27.3125 89.0624 36.1906 89.0624H63.8094C72.6875 89.0624 79.8828 81.8671 79.8828 72.989V72.0796Z" stroke="white" stroke-width="2" stroke-miterlimit="2" stroke-linecap="round" stroke-linejoin="round"/>
<path d="M42.1876 35.2234C42.1876 35.2234 40.0001 25.3499 38.6141 19.0921C38.3204 17.7671 38.5735 16.3812 39.3141 15.2452C40.0548 14.1077 41.2204 13.3187 42.5516 13.0515C42.7391 13.014 42.922 12.9781 43.1001 12.9421C44.5079 12.6609 45.9688 12.9921 47.1173 13.8531C47.9298 14.4624 48.8876 15.1812 49.7063 15.7952C50.8845 16.6781 52.3907 17.0031 53.8282 16.6843C54.5016 16.5343 55.2845 16.3609 56.122 16.1749C57.961 15.7656 59.8751 16.4156 61.086 17.8609C62.2954 19.3077 62.5985 21.3062 61.872 23.0452C59.5579 28.5827 57.0313 34.6312 57.0313 34.6312" stroke="white" stroke-width="2" stroke-miterlimit="2" stroke-linecap="round" stroke-linejoin="round"/>
<path d="M37.5 84.375C37.5 84.375 29.5328 84.2469 26.5625 76.5625" stroke="white" stroke-width="2" stroke-miterlimit="2" stroke-linecap="round" stroke-linejoin="round"/>
<path d="M45.104 73V50.152H51.12C53.9147 50.152 55.984 50.7173 57.328 51.848C58.6933 52.9787 59.376 54.6213 59.376 56.776C59.376 58.2267 59.0453 59.4747 58.384 60.52C57.7227 61.544 56.7413 62.3333 55.44 62.888C54.16 63.4427 52.5707 63.72 50.672 63.72H47.984V73H45.104ZM42.32 68.648V66.568H53.264V68.648H42.32ZM42.32 63.72V61.288H49.648V63.72H42.32ZM50.256 61.288C51.5573 61.288 52.656 61.1493 53.552 60.872C54.4693 60.5947 55.1733 60.136 55.664 59.496C56.1547 58.856 56.4 57.9813 56.4 56.872C56.4 55.4213 55.952 54.344 55.056 53.64C54.16 52.936 52.7627 52.584 50.864 52.584H47.984V61.288H50.256Z" fill="white"/>
</svg>
