<svg width="100" height="100" viewBox="0 0 100 100" fill="none" xmlns="http://www.w3.org/2000/svg">
<path d="M63.3931 64.2856C66.8448 64.2856 69.6431 67.0839 69.6431 70.5356V77.6856L69.6149 78.0729C68.5051 85.6665 61.6842 89.3179 50.2387 89.3179C38.8345 89.3179 31.9049 85.7083 30.409 78.202L30.3574 77.6785V70.5356C30.3574 67.0839 33.1556 64.2856 36.6074 64.2856H63.3931ZM65.157 42.8568L86.6074 42.8571C90.0591 42.8571 92.8574 45.6553 92.8574 49.1071V56.257L92.8292 56.6444C91.7194 64.2379 84.8985 67.8893 73.453 67.8893L72.8523 67.8836C71.7502 63.9447 68.254 61.0056 64.0316 60.7346L63.3931 60.7142L60.0994 60.7168C63.7423 57.7705 66.0716 53.2644 66.0716 48.2142C66.0716 46.3357 65.7493 44.5325 65.157 42.8568ZM13.3931 42.8571L34.8434 42.8568C34.2511 44.5325 33.9288 46.3357 33.9288 48.2142C33.9288 52.9673 35.9921 57.2385 39.272 60.1809L39.901 60.7168L36.6074 60.7142C32.0995 60.7142 28.3009 63.7512 27.1462 67.8908L27.0245 67.8893C15.6203 67.8893 8.69057 64.2797 7.19472 56.7734L7.14307 56.2499V49.1071C7.14307 45.6553 9.94129 42.8571 13.3931 42.8571ZM50.0002 35.7142C56.9038 35.7142 62.5002 41.3107 62.5002 48.2142C62.5002 55.1178 56.9038 60.7142 50.0002 60.7142C43.0966 60.7142 37.5002 55.1178 37.5002 48.2142C37.5002 41.3107 43.0966 35.7142 50.0002 35.7142ZM73.2145 14.2856C80.1181 14.2856 85.7145 19.8821 85.7145 26.7856C85.7145 33.6892 80.1181 39.2856 73.2145 39.2856C66.3109 39.2856 60.7145 33.6892 60.7145 26.7856C60.7145 19.8821 66.3109 14.2856 73.2145 14.2856ZM26.7859 14.2856C33.6895 14.2856 39.2859 19.8821 39.2859 26.7856C39.2859 33.6892 33.6895 39.2856 26.7859 39.2856C19.8824 39.2856 14.2859 33.6892 14.2859 26.7856C14.2859 19.8821 19.8824 14.2856 26.7859 14.2856Z" fill="white"/>
</svg>
