<svg width="218" height="219" viewBox="0 0 218 219" fill="none" xmlns="http://www.w3.org/2000/svg">
<circle cx="109" cy="106" r="52" stroke="#EC3339" stroke-width="6"/>
<circle cx="109" cy="106" r="73" stroke="#EC3339" stroke-width="6"/>
<rect x="105" y="140" width="7" height="79" fill="#EC3339"/>
<rect x="105" y="140" width="7" height="79" fill="#EC3339"/>
<rect x="105" y="140" width="7" height="79" fill="#EC3339"/>
<rect x="218" y="106" width="6" height="75" transform="rotate(90 218 106)" fill="#EC3339"/>
<rect x="218" y="106" width="6" height="75" transform="rotate(90 218 106)" fill="#EC3339"/>
<rect x="218" y="106" width="6" height="75" transform="rotate(90 218 106)" fill="#EC3339"/>
<rect x="75" y="106" width="6" height="75" transform="rotate(90 75 106)" fill="#EC3339"/>
<rect x="75" y="106" width="6" height="75" transform="rotate(90 75 106)" fill="#EC3339"/>
<rect x="75" y="106" width="6" height="75" transform="rotate(90 75 106)" fill="#EC3339"/>
<rect x="105" width="7" height="72" fill="#EC3339"/>
<rect x="105" width="7" height="72" fill="#EC3339"/>
<rect x="105" width="7" height="72" fill="#EC3339"/>
</svg>
