<svg width="566" height="220" viewBox="0 0 566 220" fill="none" xmlns="http://www.w3.org/2000/svg">
<path d="M161 106.353C161 135.183 137.709 158.537 109 158.537C80.2906 158.537 57 135.183 57 106.353C57 77.5238 80.2906 54.1699 109 54.1699C137.709 54.1699 161 77.5238 161 106.353Z" stroke="#EC3339" stroke-width="6"/>
<path d="M182 106.353C182 146.82 149.307 179.607 109 179.607C68.6926 179.607 36 146.82 36 106.353C36 65.8873 68.6926 33.1001 109 33.1001C149.307 33.1001 182 65.8873 182 106.353Z" stroke="#EC3339" stroke-width="6"/>
<rect x="105" y="140.467" width="7" height="79.2633" fill="#EC3339"/>
<rect x="105" y="140.467" width="7" height="79.2633" fill="#EC3339"/>
<rect x="105" y="140.467" width="7" height="79.2633" fill="#EC3339"/>
<rect x="218" y="106.353" width="6.02" height="75" transform="rotate(90 218 106.353)" fill="#EC3339"/>
<rect x="218" y="106.353" width="6.02" height="75" transform="rotate(90 218 106.353)" fill="#EC3339"/>
<rect x="218" y="106.353" width="6.02" height="75" transform="rotate(90 218 106.353)" fill="#EC3339"/>
<rect x="75" y="106.353" width="6.02" height="75" transform="rotate(90 75 106.353)" fill="#EC3339"/>
<rect x="75" y="106.353" width="6.02" height="75" transform="rotate(90 75 106.353)" fill="#EC3339"/>
<rect x="75" y="106.353" width="6.02" height="75" transform="rotate(90 75 106.353)" fill="#EC3339"/>
<rect x="105" width="7" height="72.24" fill="#EC3339"/>
<rect x="105" width="7" height="72.24" fill="#EC3339"/>
<rect x="105" width="7" height="72.24" fill="#EC3339"/>
<path d="M317.76 15V52.92H288.72V204.84H239.28V52.92H210V15H317.76Z" fill="#FBDD23"/>
<path d="M438.96 204.84H397.68V118.48L372 204.84H329.04V15H370.32V100.68L397.92 15H438.96V204.84Z" fill="#FBDD23"/>
<path d="M458.88 15H508.6C522.04 15 532.36 16.0401 539.6 18.1601C546.8 20.28 552.24 23.3199 555.88 27.2801C559.52 31.2799 561.96 36.12 563.28 41.7598C564.56 47.4401 565.2 56.1999 565.2 68.0801V84.6C565.2 96.6801 563.96 105.52 561.44 111.04C558.96 116.6 554.36 120.88 547.72 123.84C541.04 126.8 532.32 128.28 521.56 128.28H508.32V204.84H458.88V15ZM508.32 47.4V95.7598C509.72 95.8399 510.92 95.88 511.92 95.88C516.44 95.88 519.56 94.7601 521.32 92.52C523.04 90.3199 523.92 85.6798 523.92 78.6401V63C523.92 56.52 522.92 52.2801 520.88 50.3201C518.88 48.36 514.68 47.4 508.32 47.4Z" fill="#FBDD23"/>
</svg>
