<svg width="auto" height="165" viewBox="0 0 1440 165" fill="none" xmlns="http://www.w3.org/2000/svg">
            <g clip-path="url(#clip0_136_550)">
            <path d="M1440 8.39233e-05L1440 103.386C1418.77 106.12 1397.53 108.853 1377 106.894C1356.47 104.935 1336.64 98.2846 1308 100.433C1279.36 102.581 1241.92 113.527 1214 112.064C1186.08 110.6 1167.69 96.7258 1150 94.5248C1132.31 92.3238 1115.34 101.796 1091 105.971C1066.66 110.146 1034.96 109.025 1007 107.448C979.037 105.871 954.81 103.839 931 104.863C907.19 105.888 883.796 109.968 864 109.848C844.204 109.728 828.007 105.407 805 101.356C781.993 97.3038 752.176 93.5209 725 93.9709C697.824 94.4208 673.29 99.1036 648 100.063C622.71 101.023 596.663 98.2595 576 99.8786C555.337 101.498 540.056 107.5 518 107.263C495.944 107.027 467.111 100.553 442 97.8478C416.889 95.1428 395.5 96.2072 370 100.617C344.5 105.027 314.891 112.783 288 112.248C261.109 111.714 236.936 102.889 216 98.7709C195.064 94.6527 177.363 95.2408 156 95.2631C134.637 95.2855 109.61 94.742 83 96.0016C56.3895 97.2612 28.1947 100.324 7.77008e-07 103.386L9.81533e-06 -4.19655e-05L1440 8.39233e-05Z" fill="#000033" fill-opacity="0.265"/>
            <path d="M1440 0.000152588L1440 86.164C1417.98 84.2629 1395.97 82.3619 1370 82.4713C1344.03 82.5807 1314.12 84.7005 1290 83.9073C1265.88 83.1141 1247.55 79.4078 1227 81.2403C1206.45 83.0728 1183.68 90.4441 1156 93.5494C1128.32 96.6548 1095.73 95.4942 1070 94.1649C1044.27 92.8356 1025.39 91.3375 1004 87.1897C982.612 83.0419 958.716 76.2444 935 78.3682C911.284 80.492 887.748 91.5372 864 93.3443C840.252 95.1513 816.292 87.7203 789 84.3176C761.708 80.9148 731.083 81.5404 709 81.0351C686.917 80.5299 673.377 78.8938 651 80.4197C628.623 81.9456 597.41 86.6334 572 84.933C546.59 83.2326 526.983 75.1439 503 75.7012C479.017 76.2585 450.656 85.4618 427 87.8051C403.344 90.1484 384.391 85.6316 364 82.4712C343.609 79.3107 321.779 77.5065 295 81.4454C268.221 85.3843 236.492 95.0662 212 94.7803C187.508 94.4943 170.252 84.2405 146 80.2145C121.748 76.1884 90.4994 78.3901 65 80.4196C39.5006 82.4491 19.7502 84.3065 8.18484e-07 86.1639L8.35117e-06 2.66991e-05L1440 0.000152588Z" fill="#000033" fill-opacity="0.4"/>
            <path d="M1440 0.000228882L1440 68.893C1417.71 63.6722 1395.43 58.4515 1373 59.7893C1350.57 61.1271 1328.01 69.0233 1305 69.3851C1281.99 69.7468 1258.53 62.574 1232 60.2814C1205.47 57.9888 1175.87 60.5763 1149 65.9404C1122.13 71.3045 1097.99 79.445 1074 78.7348C1050.01 78.0246 1026.19 68.4636 1003 68.6469C979.812 68.8302 957.262 78.7576 934 75.5362C910.738 72.3147 886.765 55.9444 862 56.5906C837.235 57.2369 811.677 74.8998 786 76.2743C760.323 77.6487 734.526 62.7348 715 56.0985C695.474 49.4623 682.218 51.1038 657 57.3288C631.782 63.5537 594.603 74.3622 571 74.5519C547.397 74.7417 537.37 64.3128 514 65.4483C490.63 66.5837 453.917 79.2835 429 76.5203C404.083 73.7571 390.962 55.5308 366 56.0985C341.038 56.6663 304.234 76.0281 276 77.5045C247.766 78.9809 228.102 62.5718 211 58.3129C193.898 54.054 179.357 61.9452 157 62.7417C134.643 63.5382 104.469 57.2399 77 57.0827C49.5306 56.9254 24.7653 62.9091 8.64204e-07 68.8928L6.887e-06 0.000102993L1440 0.000228882Z" fill="#000033" fill-opacity="0.53"/>
            <path d="M1440 5.34058e-05L1440 47.2778C1414.09 53.8818 1388.18 60.4858 1362 62.4742C1335.82 64.4626 1309.37 61.8355 1286 61.7988C1262.63 61.7622 1242.35 64.316 1224 64.5004C1205.65 64.6848 1189.24 62.4998 1162 58.7595C1134.76 55.0193 1096.68 49.7238 1067 50.6548C1037.32 51.5857 1016.04 58.743 999 60.448C981.96 62.153 969.161 58.4058 944 51.6678C918.839 44.9299 881.314 35.2013 858 37.8222C834.686 40.4431 825.581 55.4134 803 60.7857C780.419 66.158 744.361 61.9323 716 57.7464C687.639 53.5604 666.976 49.4142 646 45.9269C625.024 42.4397 603.736 39.6113 583 45.5892C562.264 51.5672 542.079 66.3514 514 63.1495C485.921 59.9477 449.948 38.7598 426 31.7436C402.052 24.7274 390.129 31.8828 367 34.1075C343.871 36.3322 309.534 33.6261 283 37.1468C256.466 40.6674 237.733 50.4147 214 55.0448C190.267 59.6748 161.533 59.1877 141 59.0971C120.467 59.0065 108.133 59.3125 86 57.4086C63.8667 55.5048 31.9334 51.3912 1.50659e-06 47.2777L5.63975e-06 -7.2483e-05L1440 5.34058e-05Z" fill="#000033"/>
            </g>
            <defs>
            <clipPath id="clip0_136_550">
            <rect width="1440" height="165" fill="white" transform="translate(1440 165) rotate(-180)"/>
            </clipPath>
            </defs>
        </svg>