        <svg width="auto" height="auto" viewBox="0 0 1440 163" fill="none" xmlns="http://www.w3.org/2000/svg">
            <path id="wave" d="M0 163V69.3613C21.3733 67.386 42.7465 65.4107 66 64.5753C89.2535 63.7399 114.387 64.0445 136 63.1187C157.613 62.1929 175.705 60.0366 205 63.1187C234.295 66.2008 274.794 74.5214 298 76.8524C321.206 79.1834 327.118 75.5248 352 75.1877C376.882 74.8505 420.735 77.8348 445 78.1009C469.265 78.367 473.943 75.915 494 75.8119C514.057 75.7089 549.492 77.9549 578 75.6039C606.508 73.2528 628.09 66.3046 649 67.4885C669.91 68.6724 690.147 77.9883 713 77.6847C735.853 77.3811 761.323 67.4579 786 68.5289C810.677 69.6 834.563 81.6652 859 80.3898C883.437 79.1144 908.427 64.4984 932 61.0378C955.573 57.5773 977.729 65.2722 998 66.24C1018.27 67.2078 1036.66 61.4484 1066 59.7893C1095.34 58.1302 1135.64 60.5714 1162 65.6157C1188.36 70.66 1200.78 78.3074 1219 80.3898C1237.22 82.4723 1261.25 78.9897 1290 75.1877C1318.75 71.3857 1352.21 67.2643 1378 66.24C1403.79 65.2157 1421.89 67.2885 1440 69.3613V163H0Z" fill="#0D8080" fill-opacity="0.4"/>
            <path d="M0 163V88.8755C19.1894 87.9427 38.3789 87.0099 63 91.0992C87.6211 95.1885 117.674 104.3 143 100.982C168.326 97.6651 188.926 81.919 217 80.4747C245.074 79.0304 280.624 91.888 301 91.5934C321.376 91.2988 326.579 77.852 347 78.0039C367.421 78.1558 403.06 91.9062 430 92.5817C456.94 93.2572 475.182 80.8576 501 82.4514C526.818 84.0451 560.211 99.6321 584 101.23C607.789 102.827 621.975 90.4348 642 83.1926C662.025 75.9504 687.891 73.8581 711 76.7685C734.109 79.6789 754.463 87.592 783 89.6167C811.537 91.6415 848.256 87.7779 877 84.428C905.744 81.0782 926.511 78.2421 948 82.2043C969.489 86.1665 991.7 96.9269 1011 96.2879C1030.3 95.6489 1046.69 83.6105 1072 78.7451C1097.31 73.8798 1131.54 76.1876 1162 81.9572C1192.46 87.7268 1219.13 96.9582 1236 97.7704C1252.87 98.5827 1259.93 90.9758 1284 86.6518C1308.07 82.3277 1349.16 81.2865 1378 82.2043C1406.84 83.122 1423.42 85.9988 1440 88.8755V163H0Z" fill="#0D8080" fill-opacity="0.53"/>
            <path d="M0 163V111.236C21.8481 121.381 43.6962 131.526 65 127.11C86.3038 122.694 107.063 103.716 131 96.3964C154.937 89.077 182.05 93.4161 211 95.7062C239.95 97.9964 270.735 98.2376 291 104.334C311.265 110.43 321.009 122.381 347 128.49C372.991 134.6 415.231 134.869 443 125.385C470.769 115.9 484.069 96.6626 506 92.6003C527.931 88.5381 558.494 99.6512 582 106.749C605.506 113.847 621.954 116.931 643 118.138C664.046 119.344 689.688 118.675 711 116.757C732.312 114.839 749.294 111.673 778 105.714C806.706 99.7547 847.137 91.002 874 95.016C900.863 99.03 914.157 115.811 937 121.588C959.843 127.366 992.233 122.141 1013 114.687C1033.77 107.232 1042.91 97.5477 1066 102.953C1089.09 108.359 1126.13 128.854 1157 130.216C1187.87 131.578 1212.58 113.806 1232 108.82C1251.42 103.833 1265.53 111.632 1287 116.067C1308.47 120.502 1337.28 121.574 1364 120.208C1390.72 118.842 1415.36 115.039 1440 111.236V163H0Z" fill="#0D8080"/>
        </svg>